<svg xmlns="http://www.w3.org/2000/svg"  viewBox="0 0 116.224 40.908">
  <g id="Bonyan_Logo" data-name="Bonyan Logo" transform="translate(-232.868 -404.252)">
    <g id="Group_10843" data-name="Group 10843" transform="translate(232.868 404.252)">
      <g id="Group_10836" data-name="Group 10836" transform="translate(46.065 18.042)">
        <g id="Group_10835" data-name="Group 10835">
          <path id="Path_5424" data-name="Path 5424" d="M451.449,487.2a6.978,6.978,0,0,1,3.5.933,6.835,6.835,0,0,1,3.481,5.98,6.917,6.917,0,0,1-.927,3.487,6.7,6.7,0,0,1-2.523,2.536,6.978,6.978,0,0,1-3.524.914,6.568,6.568,0,0,1-4.836-2.017,6.981,6.981,0,0,1,.261-10.042A6.61,6.61,0,0,1,451.449,487.2Zm.054,3.113a3.4,3.4,0,0,0-2.565,1.072,3.807,3.807,0,0,0-1.025,2.743,3.867,3.867,0,0,0,1.014,2.784,3.381,3.381,0,0,0,2.565,1.066,3.421,3.421,0,0,0,2.582-1.077,4.247,4.247,0,0,0,.017-5.528A3.415,3.415,0,0,0,451.5,490.313Z" transform="translate(-444.62 -487.198)" fill="#fff"/>
          <path id="Path_5425" data-name="Path 5425" d="M516.3,487.547h3.3V488.9a8.023,8.023,0,0,1,2.036-1.318,4.907,4.907,0,0,1,1.869-.37,4.521,4.521,0,0,1,3.324,1.368,4.7,4.7,0,0,1,1.149,3.439v8.706h-3.27v-5.771a14.58,14.58,0,0,0-.211-3.133,2.149,2.149,0,0,0-.737-1.179,2.065,2.065,0,0,0-1.3-.4,2.43,2.43,0,0,0-1.721.672,3.586,3.586,0,0,0-1,1.856,15.051,15.051,0,0,0-.146,2.674v5.284h-3.3V487.547Z" transform="translate(-500.707 -487.206)" fill="#fff"/>
          <path id="Path_5426" data-name="Path 5426" d="M573.78,488.76h3.378l3.422,8.264,3.776-8.264h3.387l-8.249,17.991h-3.413l2.708-5.8Z" transform="translate(-545.683 -488.419)" fill="#fff"/>
          <path id="Path_5427" data-name="Path 5427" d="M649.947,487.532h3.3V500.7h-3.3v-1.392a6.456,6.456,0,0,1-1.94,1.325,5.443,5.443,0,0,1-2.11.4,5.86,5.86,0,0,1-4.414-1.98,6.9,6.9,0,0,1-1.862-4.921,7.082,7.082,0,0,1,1.8-5,5.743,5.743,0,0,1,4.377-1.949,5.58,5.58,0,0,1,2.225.448,6.051,6.051,0,0,1,1.923,1.344Zm-3.474,2.713a3.334,3.334,0,0,0-2.545,1.083,3.9,3.9,0,0,0-1.014,2.778,3.945,3.945,0,0,0,1.031,2.808,3.338,3.338,0,0,0,2.541,1.1,3.4,3.4,0,0,0,2.582-1.083,3.962,3.962,0,0,0,1.025-2.839,3.847,3.847,0,0,0-1.025-2.785A3.457,3.457,0,0,0,646.473,490.244Z" transform="translate(-597.2 -487.19)" fill="#fff"/>
          <path id="Path_5428" data-name="Path 5428" d="M713.422,487.547h3.3V488.9a8.021,8.021,0,0,1,2.036-1.318,4.907,4.907,0,0,1,1.869-.37,4.521,4.521,0,0,1,3.324,1.368,4.7,4.7,0,0,1,1.149,3.439v8.706h-3.27v-5.771a14.582,14.582,0,0,0-.211-3.133,2.15,2.15,0,0,0-.737-1.179,2.065,2.065,0,0,0-1.3-.4,2.43,2.43,0,0,0-1.721.672,3.585,3.585,0,0,0-1,1.856,15.051,15.051,0,0,0-.146,2.674v5.284h-3.3V487.547Z" transform="translate(-654.945 -487.206)" fill="#fff"/>
        </g>
      </g>
      <g id="Group_10838" data-name="Group 10838" transform="translate(2.222 33.614)">
        <g id="Group_10837" data-name="Group 10837">
          <path id="Path_5429" data-name="Path 5429" d="M243.08,565.349V559.88h1.133a5.751,5.751,0,0,1,1.782.2,2.389,2.389,0,0,1,1.244.966,2.944,2.944,0,0,1,.448,1.64,2.875,2.875,0,0,1-.355,1.447,2.28,2.28,0,0,1-.922.922,3.477,3.477,0,0,1-1.59.3h-1.74Zm.524-.518h.633a5.928,5.928,0,0,0,1.573-.141,1.806,1.806,0,0,0,.97-.722,2.226,2.226,0,0,0,.352-1.277,2.352,2.352,0,0,0-.383-1.353,1.917,1.917,0,0,0-1.066-.768,6.423,6.423,0,0,0-1.692-.157H243.6Z" transform="translate(-243.08 -559.639)" fill="#fff"/>
          <path id="Path_5430" data-name="Path 5430" d="M270.866,558.77a.431.431,0,0,1,.431.431.4.4,0,0,1-.126.3.428.428,0,1,1-.3-.731Zm-.259,1.664h.52v4.044h-.52Z" transform="translate(-264.488 -558.77)" fill="#fff"/>
          <path id="Path_5431" data-name="Path 5431" d="M284.162,566.044h.52v3.224a3.854,3.854,0,0,1-.148,1.247,1.626,1.626,0,0,1-.709.859,2.339,2.339,0,0,1-1.216.3,2.787,2.787,0,0,1-.935-.148,1.872,1.872,0,0,1-.674-.4,2.335,2.335,0,0,1-.479-.724h.566a1.49,1.49,0,0,0,.6.594,1.921,1.921,0,0,0,.9.194,1.86,1.86,0,0,0,.9-.2,1.221,1.221,0,0,0,.522-.5,2.22,2.22,0,0,0,.157-.968v-.209a1.966,1.966,0,0,1-.718.57,2.138,2.138,0,0,1-1.949-.078,1.957,1.957,0,0,1-.759-.746,2.04,2.04,0,0,1-.268-1.029,2.077,2.077,0,0,1,.278-1.046,2.119,2.119,0,0,1,1.812-1.051,1.95,1.95,0,0,1,.846.187,2.341,2.341,0,0,1,.757.62v-.7Zm-1.536.4a1.662,1.662,0,0,0-.822.213,1.523,1.523,0,0,0-.594.592,1.622,1.622,0,0,0-.215.816,1.469,1.469,0,0,0,.446,1.1,1.758,1.758,0,0,0,2.31,0,1.521,1.521,0,0,0,.437-1.133,1.655,1.655,0,0,0-.2-.816,1.485,1.485,0,0,0-.568-.568A1.588,1.588,0,0,0,282.626,566.443Z" transform="translate(-272.336 -564.38)" fill="#fff"/>
          <path id="Path_5432" data-name="Path 5432" d="M307.1,558.77a.431.431,0,0,1,.431.431.4.4,0,0,1-.126.3.428.428,0,1,1-.6-.6A.4.4,0,0,1,307.1,558.77Zm-.259,1.664h.52v4.044h-.52Z" transform="translate(-292.837 -558.77)" fill="#fff"/>
          <path id="Path_5433" data-name="Path 5433" d="M317.169,559.52h.52v1.5h.824v.45h-.824v3.6h-.52v-3.6h-.709v-.45h.709Z" transform="translate(-300.497 -559.357)" fill="#fff"/>
          <path id="Path_5434" data-name="Path 5434" d="M335.712,566.044v4.044H335.2v-.7a2.206,2.206,0,0,1-.735.6,2.052,2.052,0,0,1-2.356-.422,2.09,2.09,0,0,1-.607-1.514,2.048,2.048,0,0,1,.613-1.495,2,2,0,0,1,1.475-.62,1.9,1.9,0,0,1,.9.211,2.056,2.056,0,0,1,.709.635v-.744h.513Zm-2.08.4a1.583,1.583,0,0,0-.8.213,1.553,1.553,0,0,0-.585.6,1.631,1.631,0,0,0-.218.816,1.654,1.654,0,0,0,.22.818,1.581,1.581,0,0,0,.59.607,1.535,1.535,0,0,0,.792.218,1.622,1.622,0,0,0,.809-.215,1.518,1.518,0,0,0,.59-.583,1.673,1.673,0,0,0,.207-.829,1.6,1.6,0,0,0-.463-1.173A1.528,1.528,0,0,0,333.632,566.443Z" transform="translate(-312.265 -564.38)" fill="#fff"/>
          <path id="Path_5435" data-name="Path 5435" d="M358.72,559.25h.52v5.606h-.52Z" transform="translate(-333.564 -559.146)" fill="#fff"/>
          <path id="Path_5436" data-name="Path 5436" d="M380.69,565.349l.783-5.469h.089l2.223,4.488,2.2-4.488h.087l.787,5.469h-.535l-.539-3.911-1.934,3.911h-.139l-1.956-3.942-.537,3.942Z" transform="translate(-350.754 -559.639)" fill="#f07f1a"/>
          <path id="Path_5437" data-name="Path 5437" d="M419.822,566.044v4.044h-.513v-.7a2.205,2.205,0,0,1-.735.6,2.052,2.052,0,0,1-2.356-.422,2.09,2.09,0,0,1-.607-1.514,2.048,2.048,0,0,1,.613-1.495,2,2,0,0,1,1.475-.62,1.9,1.9,0,0,1,.9.211,2.056,2.056,0,0,1,.709.635v-.744h.513Zm-2.08.4a1.583,1.583,0,0,0-.8.213,1.553,1.553,0,0,0-.585.6,1.632,1.632,0,0,0-.218.816,1.654,1.654,0,0,0,.22.818,1.581,1.581,0,0,0,.59.607,1.535,1.535,0,0,0,.792.218,1.622,1.622,0,0,0,.809-.215,1.519,1.519,0,0,0,.59-.583,1.674,1.674,0,0,0,.207-.829,1.6,1.6,0,0,0-.463-1.173A1.528,1.528,0,0,0,417.742,566.443Z" transform="translate(-378.078 -564.38)" fill="#f07f1a"/>
          <path id="Path_5438" data-name="Path 5438" d="M442.28,566.052h.531v.592a1.87,1.87,0,0,1,.5-.522.988.988,0,0,1,.55-.172.952.952,0,0,1,.461.137l-.272.439a.7.7,0,0,0-.274-.07.758.758,0,0,0-.5.213,1.36,1.36,0,0,0-.368.664,6.332,6.332,0,0,0-.1,1.4V570.1h-.531v-4.048Z" transform="translate(-398.946 -564.388)" fill="#f07f1a"/>
          <path id="Path_5439" data-name="Path 5439" d="M456.53,559.25h.52v3.193l1.875-1.632h.764l-2.223,1.93,2.354,2.115h-.733l-2.036-1.821v1.821h-.52Z" transform="translate(-410.096 -559.146)" fill="#f07f1a"/>
          <path id="Path_5440" data-name="Path 5440" d="M479.645,568.749l.439.231a2.381,2.381,0,0,1-.5.683,1.982,1.982,0,0,1-.637.4,2.2,2.2,0,0,1-.8.135,1.934,1.934,0,0,1-1.549-.648,2.193,2.193,0,0,1-.559-1.466,2.163,2.163,0,0,1,.472-1.373,1.93,1.93,0,0,1,1.6-.766,1.99,1.99,0,0,1,1.651.785,2.183,2.183,0,0,1,.446,1.384h-3.639a1.654,1.654,0,0,0,.45,1.155,1.433,1.433,0,0,0,1.075.45,1.713,1.713,0,0,0,.6-.107,1.57,1.57,0,0,0,.5-.285A2.3,2.3,0,0,0,479.645,568.749Zm0-1.09a1.719,1.719,0,0,0-.3-.666,1.457,1.457,0,0,0-.526-.4,1.6,1.6,0,0,0-.69-.152,1.49,1.49,0,0,0-1.025.383,1.726,1.726,0,0,0-.472.835h3.015Z" transform="translate(-425.362 -564.38)" fill="#f07f1a"/>
          <path id="Path_5441" data-name="Path 5441" d="M502.069,559.52h.52v1.5h.824v.45h-.824v3.6h-.52v-3.6h-.709v-.45h.709Z" transform="translate(-445.174 -559.357)" fill="#f07f1a"/>
          <path id="Path_5442" data-name="Path 5442" d="M516.526,558.77a.408.408,0,0,1,.3.126.413.413,0,0,1,.126.3.4.4,0,0,1-.126.3.427.427,0,1,1-.6-.6A.4.4,0,0,1,516.526,558.77Zm-.259,1.664h.52v4.044h-.52Z" transform="translate(-456.707 -558.77)" fill="#f07f1a"/>
          <path id="Path_5443" data-name="Path 5443" d="M527.062,566.044h.52v.724a2.17,2.17,0,0,1,.692-.622,1.706,1.706,0,0,1,.824-.207,1.43,1.43,0,0,1,.8.231,1.372,1.372,0,0,1,.518.62,3.3,3.3,0,0,1,.167,1.216v2.082h-.52v-1.93a4.692,4.692,0,0,0-.059-.933,1.026,1.026,0,0,0-.348-.6,1.05,1.05,0,0,0-.67-.2,1.283,1.283,0,0,0-.846.313,1.451,1.451,0,0,0-.492.772,5.348,5.348,0,0,0-.074,1.1v1.484h-.52v-4.044Z" transform="translate(-465.283 -564.38)" fill="#f07f1a"/>
          <path id="Path_5444" data-name="Path 5444" d="M554,566.044h.52v3.224a3.852,3.852,0,0,1-.148,1.247,1.626,1.626,0,0,1-.709.859,2.34,2.34,0,0,1-1.216.3,2.788,2.788,0,0,1-.935-.148,1.87,1.87,0,0,1-.674-.4,2.334,2.334,0,0,1-.479-.724h.566a1.491,1.491,0,0,0,.6.594,1.921,1.921,0,0,0,.9.194,1.86,1.86,0,0,0,.9-.2,1.21,1.21,0,0,0,.522-.5,2.221,2.221,0,0,0,.157-.968v-.209a1.966,1.966,0,0,1-.718.57,2.138,2.138,0,0,1-1.949-.078,1.957,1.957,0,0,1-.759-.746,2.04,2.04,0,0,1-.268-1.029,2.08,2.08,0,0,1,1.051-1.814,2.049,2.049,0,0,1,1.04-.283,1.95,1.95,0,0,1,.846.187,2.312,2.312,0,0,1,.757.62v-.7Zm-1.536.4a1.656,1.656,0,0,0-.822.213,1.538,1.538,0,0,0-.594.592,1.623,1.623,0,0,0-.215.816,1.469,1.469,0,0,0,.446,1.1,1.591,1.591,0,0,0,1.157.435,1.575,1.575,0,0,0,1.155-.431,1.521,1.521,0,0,0,.437-1.133,1.654,1.654,0,0,0-.2-.816,1.484,1.484,0,0,0-.568-.568A1.608,1.608,0,0,0,552.466,566.443Z" transform="translate(-483.475 -564.38)" fill="#f07f1a"/>
        </g>
      </g>
      <g id="Group_10840" data-name="Group 10840" transform="translate(46.35 9.902)">
        <g id="Group_10839" data-name="Group 10839">
          <path id="Path_5445" data-name="Path 5445" d="M445.93,450.88h3.135v.535h-2.587v1.714h2.565v.535h-2.565v2.149h2.565v.535h-3.111V450.88Z" transform="translate(-445.93 -450.639)" fill="#fff"/>
          <path id="Path_5446" data-name="Path 5446" d="M467.112,457.044h.52v.724a2.169,2.169,0,0,1,.692-.622,1.7,1.7,0,0,1,.824-.207,1.43,1.43,0,0,1,.8.231,1.372,1.372,0,0,1,.518.62,3.3,3.3,0,0,1,.167,1.216v2.082h-.52v-1.93a4.7,4.7,0,0,0-.059-.933,1.026,1.026,0,0,0-.348-.6,1.051,1.051,0,0,0-.67-.2,1.283,1.283,0,0,0-.846.313,1.451,1.451,0,0,0-.492.772,5.352,5.352,0,0,0-.074,1.1v1.484h-.52v-4.044Z" transform="translate(-462.503 -455.38)" fill="#fff"/>
          <path id="Path_5447" data-name="Path 5447" d="M494.052,457.045h.52v3.224a3.855,3.855,0,0,1-.148,1.247,1.626,1.626,0,0,1-.709.859,2.339,2.339,0,0,1-1.216.3,2.785,2.785,0,0,1-.935-.148,1.87,1.87,0,0,1-.674-.4,2.335,2.335,0,0,1-.479-.724h.566a1.49,1.49,0,0,0,.6.594,1.921,1.921,0,0,0,.9.194,1.86,1.86,0,0,0,.9-.2,1.221,1.221,0,0,0,.522-.5,2.22,2.22,0,0,0,.157-.968v-.209a1.967,1.967,0,0,1-.718.57,2.137,2.137,0,0,1-1.949-.078,1.956,1.956,0,0,1-.759-.746,2.039,2.039,0,0,1-.268-1.029,2.076,2.076,0,0,1,.278-1.046,2.119,2.119,0,0,1,1.812-1.051,1.95,1.95,0,0,1,.846.187,2.34,2.34,0,0,1,.757.62v-.7Zm-1.536.4a1.661,1.661,0,0,0-.822.213,1.523,1.523,0,0,0-.594.592,1.623,1.623,0,0,0-.215.816,1.469,1.469,0,0,0,.446,1.1,1.758,1.758,0,0,0,2.31,0,1.521,1.521,0,0,0,.437-1.133,1.654,1.654,0,0,0-.2-.816,1.474,1.474,0,0,0-.57-.568A1.579,1.579,0,0,0,492.516,457.443Z" transform="translate(-480.695 -455.38)" fill="#fff"/>
          <path id="Path_5448" data-name="Path 5448" d="M516.976,449.77a.431.431,0,0,1,.431.431.4.4,0,0,1-.126.3.428.428,0,1,1-.3-.731Zm-.259,1.664h.52v4.044h-.52Z" transform="translate(-501.187 -449.77)" fill="#fff"/>
          <path id="Path_5449" data-name="Path 5449" d="M527.52,457.044h.52v.724a2.17,2.17,0,0,1,.692-.622,1.7,1.7,0,0,1,.825-.207,1.43,1.43,0,0,1,.8.231,1.372,1.372,0,0,1,.518.62,3.3,3.3,0,0,1,.167,1.216v2.082h-.52v-1.93a4.706,4.706,0,0,0-.059-.933,1.035,1.035,0,0,0-.346-.6,1.051,1.051,0,0,0-.67-.2,1.283,1.283,0,0,0-.846.313,1.451,1.451,0,0,0-.492.772,5.348,5.348,0,0,0-.074,1.1v1.484h-.52Z" transform="translate(-509.771 -455.38)" fill="#fff"/>
          <path id="Path_5450" data-name="Path 5450" d="M554.395,459.749l.439.231a2.382,2.382,0,0,1-.5.683,1.984,1.984,0,0,1-.637.4,2.2,2.2,0,0,1-.8.135,1.935,1.935,0,0,1-1.549-.648,2.192,2.192,0,0,1-.559-1.466,2.163,2.163,0,0,1,.472-1.373,1.93,1.93,0,0,1,1.6-.766,1.99,1.99,0,0,1,1.651.785,2.183,2.183,0,0,1,.446,1.384h-3.64a1.655,1.655,0,0,0,.45,1.155,1.435,1.435,0,0,0,1.077.45,1.713,1.713,0,0,0,.6-.107,1.6,1.6,0,0,0,.5-.285A2.346,2.346,0,0,0,554.395,459.749Zm0-1.09a1.72,1.72,0,0,0-.3-.666,1.458,1.458,0,0,0-.526-.4,1.6,1.6,0,0,0-.69-.152,1.491,1.491,0,0,0-1.025.383,1.727,1.727,0,0,0-.472.835h3.015Z" transform="translate(-527.979 -455.38)" fill="#fff"/>
          <path id="Path_5451" data-name="Path 5451" d="M579.982,459.749l.439.231a2.342,2.342,0,0,1-.5.683,2,2,0,0,1-.635.4,2.2,2.2,0,0,1-.8.135,1.935,1.935,0,0,1-1.549-.648,2.193,2.193,0,0,1-.559-1.466,2.163,2.163,0,0,1,.472-1.373,1.93,1.93,0,0,1,1.6-.766,1.99,1.99,0,0,1,1.651.785,2.183,2.183,0,0,1,.446,1.384h-3.639a1.645,1.645,0,0,0,.45,1.155,1.434,1.434,0,0,0,1.075.45,1.714,1.714,0,0,0,.6-.107,1.6,1.6,0,0,0,.5-.285A2.348,2.348,0,0,0,579.982,459.749Zm0-1.09a1.719,1.719,0,0,0-.3-.666,1.459,1.459,0,0,0-.526-.4,1.6,1.6,0,0,0-.69-.152,1.49,1.49,0,0,0-1.025.383,1.727,1.727,0,0,0-.472.835h3.015Z" transform="translate(-548.002 -455.38)" fill="#fff"/>
          <path id="Path_5452" data-name="Path 5452" d="M601.96,457.052h.531v.592a1.869,1.869,0,0,1,.5-.522.987.987,0,0,1,.55-.172.952.952,0,0,1,.461.137l-.272.439a.7.7,0,0,0-.274-.07.757.757,0,0,0-.5.213,1.361,1.361,0,0,0-.368.664,6.334,6.334,0,0,0-.1,1.4V461.1h-.531v-4.048Z" transform="translate(-568.017 -455.388)" fill="#fff"/>
          <path id="Path_5453" data-name="Path 5453" d="M615.526,449.77a.431.431,0,0,1,.431.431.4.4,0,0,1-.126.3.428.428,0,1,1-.6-.6A.4.4,0,0,1,615.526,449.77Zm-.259,1.664h.52v4.044h-.52Z" transform="translate(-578.299 -449.77)" fill="#fff"/>
          <path id="Path_5454" data-name="Path 5454" d="M626.062,457.044h.52v.724a2.169,2.169,0,0,1,.692-.622,1.7,1.7,0,0,1,.824-.207,1.43,1.43,0,0,1,.8.231,1.373,1.373,0,0,1,.518.62,3.3,3.3,0,0,1,.168,1.216v2.082h-.52v-1.93a4.7,4.7,0,0,0-.059-.933,1.026,1.026,0,0,0-.348-.6,1.05,1.05,0,0,0-.67-.2,1.283,1.283,0,0,0-.846.313,1.451,1.451,0,0,0-.492.772,5.35,5.35,0,0,0-.074,1.1v1.484h-.52v-4.044Z" transform="translate(-586.875 -455.38)" fill="#fff"/>
          <path id="Path_5455" data-name="Path 5455" d="M653,457.045h.52v3.224a3.853,3.853,0,0,1-.148,1.247,1.626,1.626,0,0,1-.709.859,2.338,2.338,0,0,1-1.216.3,2.785,2.785,0,0,1-.935-.148,1.871,1.871,0,0,1-.674-.4,2.337,2.337,0,0,1-.479-.724h.566a1.49,1.49,0,0,0,.6.594,1.921,1.921,0,0,0,.9.194,1.86,1.86,0,0,0,.9-.2,1.21,1.21,0,0,0,.522-.5,2.22,2.22,0,0,0,.157-.968v-.209a1.966,1.966,0,0,1-.718.57,2.137,2.137,0,0,1-1.949-.078,1.956,1.956,0,0,1-.759-.746,2.04,2.04,0,0,1-.268-1.029,2.08,2.08,0,0,1,1.051-1.814,2.049,2.049,0,0,1,1.04-.283,1.95,1.95,0,0,1,.846.187,2.312,2.312,0,0,1,.757.62v-.7Zm-1.536.4a1.655,1.655,0,0,0-.822.213,1.538,1.538,0,0,0-.594.592,1.623,1.623,0,0,0-.215.816,1.469,1.469,0,0,0,.446,1.1,1.591,1.591,0,0,0,1.157.435,1.575,1.575,0,0,0,1.155-.431,1.521,1.521,0,0,0,.437-1.133,1.655,1.655,0,0,0-.2-.816,1.483,1.483,0,0,0-.568-.568A1.607,1.607,0,0,0,651.466,457.443Z" transform="translate(-605.067 -455.38)" fill="#fff"/>
        </g>
      </g>
      <g id="Group_10842" data-name="Group 10842" transform="translate(0 17.92)">
        <g id="Group_10841" data-name="Group 10841">
          <path id="Path_5456" data-name="Path 5456" d="M245.325,489.4l-7.446,7.446a3.507,3.507,0,0,0,2.43.7,3.819,3.819,0,0,0,2.369-1.205A4.375,4.375,0,0,0,244,493.2l2.869-1.035a6.517,6.517,0,0,1-.218,3.283,7.748,7.748,0,0,1-1.923,2.917,6.759,6.759,0,0,1-4.912,2.169,6.6,6.6,0,0,1-4.8-2.067,6.83,6.83,0,0,1-2.149-4.875,6.474,6.474,0,0,1,2.021-4.814,6.713,6.713,0,0,1,4.947-2.151,7.14,7.14,0,0,1,5.058,2.323Zm-4.144.492a3.291,3.291,0,0,0-2.162-.35,3.712,3.712,0,0,0-2.054,1.085,3.929,3.929,0,0,0-1.157,2.245,4.29,4.29,0,0,0,.346,2.047Z" transform="translate(-232.868 -486.628)" fill="#f07f1a"/>
        </g>
      </g>
      <path id="Path_5457" data-name="Path 5457" d="M308.215,407.712v3.015H304.8v-6.441c.085-.009.161-.024.235-.024,5.71,0,11.419-.026,17.129.007a8.571,8.571,0,0,1,6.039,14.325,1.35,1.35,0,0,0-.1.122c-.013.02-.013.05,0-.026a22.173,22.173,0,0,1,2.465,1.866,8.675,8.675,0,0,1,2.345,9.337,8.788,8.788,0,0,1-7.362,6.222,6.42,6.42,0,0,1-1.1.087q-4.934.01-9.868,0h-.27v-12.72h3.374v9.256c.163.013.289.03.413.03,2.038,0,4.079.011,6.117,0a5.668,5.668,0,0,0,.555-11.314c-1.588-.083-8.4-.028-10-.037h-.472v-3.428c.781,0,6.761,0,7.52,0a5.146,5.146,0,0,0,.365-10.281c-1.273-.059-2.552-.02-3.827-.022q-4.953-.007-9.907,0C308.4,407.686,308.335,407.7,308.215,407.712Z" transform="translate(-289.152 -404.252)" fill="#f07f1a"/>
      <path id="Path_5458" data-name="Path 5458" d="M330.065,485.025H326.68V466.66h3.385Z" transform="translate(-306.272 -453.084)" fill="#fff"/>
      <path id="Path_5459" data-name="Path 5459" d="M308.187,466.236H304.8V442.65h3.387Z" transform="translate(-289.152 -434.297)" fill="#fff"/>
    </g>
  </g>
</svg>
