<?xml version="1.0" encoding="utf-8"?>
<!-- Generator: Adobe Illustrator 25.0.0, SVG Export Plug-In . SVG Version: 6.00 Build 0)  -->
<svg version="1.1" id="Layer_1" xmlns="http://www.w3.org/2000/svg" xmlns:xlink="http://www.w3.org/1999/xlink" x="0px" y="0px"
	 viewBox="0 0 1000 1000" style="enable-background:new 0 0 1000 1000;" xml:space="preserve">
<style type="text/css">
	.st0{fill:#EFEFEF;}
	.st1{fill:#22274E;}
	.st2{fill:#F07F1A;}
</style>
<rect y="1" class="st0" width="999" height="999"/>
<g>
	<g>
		<g>
			<path class="st1" d="M476.01,487.2c5.71,0,11.08,1.43,16.11,4.29c5.03,2.86,8.95,6.73,11.77,11.63
				c2.82,4.9,4.23,10.18,4.23,15.86c0,5.71-1.42,11.06-4.26,16.03c-2.84,4.97-6.71,8.86-11.6,11.66c-4.9,2.8-10.3,4.2-16.2,4.2
				c-8.68,0-16.09-3.09-22.23-9.27c-6.14-6.18-9.21-13.68-9.21-22.51c0-9.46,3.47-17.35,10.41-23.65
				C461.11,489.95,468.1,487.2,476.01,487.2z M476.26,501.51c-4.72,0-8.65,1.64-11.79,4.93c-3.14,3.28-4.71,7.49-4.71,12.61
				c0,5.27,1.55,9.54,4.66,12.8c3.1,3.27,7.03,4.9,11.79,4.9c4.76,0,8.72-1.65,11.87-4.95c3.16-3.3,4.74-7.55,4.74-12.75
				c0-5.19-1.55-9.41-4.66-12.66C485.06,503.13,481.09,501.51,476.26,501.51z"/>
			<path class="st1" d="M516.31,488.76h15.19v6.21c3.45-2.9,6.57-4.92,9.36-6.06c2.8-1.14,5.66-1.7,8.59-1.7
				c6,0,11.1,2.1,15.28,6.29c3.52,3.56,5.28,8.83,5.28,15.81v40.02h-15.03V522.8c0-7.23-0.32-12.02-0.97-14.4
				c-0.65-2.37-1.78-4.18-3.39-5.42c-1.61-1.24-3.6-1.86-5.97-1.86c-3.07,0-5.71,1.03-7.91,3.09c-2.2,2.06-3.73,4.9-4.58,8.53
				c-0.44,1.89-0.67,5.99-0.67,12.29v24.29h-15.19V488.76z"/>
			<path class="st1" d="M573.78,488.76h15.53l15.73,37.99l17.36-37.99h15.57l-37.92,82.7h-15.69l12.45-26.67L573.78,488.76z"/>
			<path class="st1" d="M687.09,488.76h15.19v60.55h-15.19v-6.4c-2.96,2.82-5.94,4.85-8.92,6.09c-2.98,1.24-6.22,1.86-9.7,1.86
				c-7.82,0-14.58-3.03-20.29-9.1c-5.71-6.07-8.56-13.61-8.56-22.62c0-9.35,2.76-17.01,8.28-22.99c5.52-5.97,12.23-8.96,20.12-8.96
				c3.63,0,7.04,0.69,10.23,2.06c3.19,1.37,6.13,3.43,8.84,6.18V488.76z M671.12,501.23c-4.7,0-8.6,1.66-11.7,4.98
				c-3.11,3.32-4.66,7.58-4.66,12.77c0,5.23,1.58,9.54,4.74,12.91c3.16,3.38,7.05,5.06,11.68,5.06c4.77,0,8.73-1.66,11.87-4.98
				c3.14-3.32,4.71-7.67,4.71-13.05c0-5.27-1.57-9.54-4.71-12.8C679.9,502.86,675.92,501.23,671.12,501.23z"/>
			<path class="st1" d="M713.43,488.76h15.19v6.21c3.45-2.9,6.57-4.92,9.36-6.06c2.8-1.14,5.66-1.7,8.59-1.7
				c6,0,11.1,2.1,15.28,6.29c3.52,3.56,5.28,8.83,5.28,15.81v40.02h-15.03V522.8c0-7.23-0.32-12.02-0.97-14.4
				c-0.65-2.37-1.78-4.18-3.39-5.42c-1.61-1.24-3.6-1.86-5.97-1.86c-3.07,0-5.71,1.03-7.91,3.09c-2.2,2.06-3.73,4.9-4.58,8.53
				c-0.44,1.89-0.67,5.99-0.67,12.29v24.29h-15.19V488.76z"/>
		</g>
	</g>
	<g>
		<g>
			<path class="st1" d="M243.08,585.02v-25.14h5.21c3.76,0,6.49,0.3,8.19,0.91c2.44,0.85,4.34,2.34,5.72,4.44
				c1.37,2.11,2.06,4.62,2.06,7.54c0,2.52-0.54,4.73-1.63,6.65c-1.09,1.91-2.5,3.33-4.24,4.24c-1.74,0.91-4.17,1.37-7.31,1.37
				H243.08z M245.49,582.64h2.91c3.47,0,5.88-0.22,7.23-0.65c1.89-0.61,3.38-1.72,4.46-3.32c1.08-1.6,1.62-3.55,1.62-5.87
				c0-2.42-0.59-4.5-1.76-6.22c-1.17-1.72-2.81-2.9-4.9-3.53c-1.57-0.48-4.16-0.72-7.78-0.72h-1.78V582.64z"/>
			<path class="st1" d="M272.4,558.77c0.54,0,1.01,0.19,1.4,0.58c0.39,0.39,0.58,0.85,0.58,1.4c0,0.54-0.19,1-0.58,1.38
				c-0.39,0.39-0.85,0.58-1.4,0.58c-0.53,0-0.99-0.19-1.38-0.58c-0.39-0.39-0.58-0.85-0.58-1.38c0-0.55,0.19-1.01,0.58-1.4
				C271.41,558.96,271.87,558.77,272.4,558.77z M271.21,566.42h2.39v18.59h-2.39V566.42z"/>
			<path class="st1" d="M297.44,566.42h2.39v14.82c0,2.61-0.23,4.52-0.68,5.73c-0.63,1.71-1.71,3.02-3.26,3.95
				c-1.55,0.92-3.41,1.38-5.59,1.38c-1.6,0-3.03-0.23-4.3-0.68c-1.27-0.45-2.3-1.06-3.1-1.82c-0.8-0.76-1.53-1.87-2.2-3.33h2.6
				c0.71,1.23,1.62,2.14,2.74,2.73c1.12,0.59,2.5,0.89,4.16,0.89c1.63,0,3.01-0.3,4.13-0.91c1.12-0.61,1.92-1.37,2.4-2.29
				c0.48-0.92,0.72-2.41,0.72-4.45v-0.96c-0.9,1.14-2,2.01-3.3,2.62s-2.68,0.91-4.14,0.91c-1.71,0-3.32-0.42-4.82-1.27
				c-1.51-0.85-2.67-1.99-3.49-3.43c-0.82-1.44-1.23-3.01-1.23-4.73c0-1.72,0.43-3.32,1.28-4.81c0.85-1.49,2.04-2.66,3.55-3.53
				c1.51-0.87,3.1-1.3,4.78-1.3c1.39,0,2.69,0.29,3.89,0.86c1.2,0.58,2.36,1.52,3.48,2.85V566.42z M290.38,568.25
				c-1.36,0-2.61,0.33-3.78,0.98s-2.07,1.56-2.73,2.72c-0.66,1.16-0.99,2.41-0.99,3.75c0,2.04,0.68,3.73,2.05,5.06
				c1.37,1.33,3.14,2,5.31,2c2.2,0,3.97-0.66,5.31-1.98c1.34-1.32,2.01-3.06,2.01-5.21c0-1.4-0.31-2.65-0.92-3.75
				c-0.62-1.1-1.49-1.97-2.61-2.61C292.9,568.57,291.68,568.25,290.38,568.25z"/>
			<path class="st1" d="M308.63,558.77c0.54,0,1.01,0.19,1.4,0.58c0.39,0.39,0.58,0.85,0.58,1.4c0,0.54-0.19,1-0.58,1.38
				c-0.39,0.39-0.85,0.58-1.4,0.58c-0.53,0-0.99-0.19-1.38-0.58c-0.39-0.39-0.58-0.85-0.58-1.38c0-0.55,0.19-1.01,0.58-1.4
				C307.63,558.96,308.09,558.77,308.63,558.77z M307.44,566.42h2.39v18.59h-2.39V566.42z"/>
			<path class="st1" d="M319.72,559.52h2.39v6.9h3.79v2.07h-3.79v16.53h-2.39v-16.53h-3.26v-2.07h3.26V559.52z"/>
			<path class="st1" d="M350.86,566.42v18.59h-2.36v-3.2c-1,1.22-2.13,2.14-3.38,2.75c-1.25,0.62-2.61,0.92-4.09,0.92
				c-2.63,0-4.88-0.95-6.74-2.86c-1.86-1.91-2.79-4.23-2.79-6.96c0-2.68,0.94-4.97,2.82-6.87c1.88-1.9,4.14-2.85,6.78-2.85
				c1.53,0,2.91,0.32,4.14,0.97c1.24,0.65,2.32,1.62,3.26,2.92v-3.42H350.86z M341.3,568.25c-1.33,0-2.56,0.33-3.69,0.98
				s-2.02,1.57-2.69,2.76c-0.67,1.18-1,2.44-1,3.75c0,1.31,0.34,2.56,1.01,3.76c0.67,1.2,1.57,2.12,2.71,2.79s2.35,1,3.64,1
				c1.31,0,2.55-0.33,3.72-0.99c1.17-0.66,2.07-1.55,2.71-2.68c0.63-1.13,0.95-2.4,0.95-3.81c0-2.15-0.71-3.95-2.13-5.39
				C345.11,568.97,343.37,568.25,341.3,568.25z"/>
			<path class="st1" d="M358.72,559.25h2.39v25.77h-2.39V559.25z"/>
			<path class="st2" d="M380.69,585.02l3.6-25.14h0.41l10.22,20.63l10.12-20.63h0.4l3.62,25.14h-2.46l-2.48-17.98l-8.89,17.98h-0.64
				l-8.99-18.12l-2.47,18.12H380.69z"/>
			<path class="st2" d="M434.97,566.42v18.59h-2.36v-3.2c-1,1.22-2.13,2.14-3.38,2.75c-1.25,0.62-2.61,0.92-4.09,0.92
				c-2.63,0-4.88-0.95-6.74-2.86c-1.86-1.91-2.79-4.23-2.79-6.96c0-2.68,0.94-4.97,2.82-6.87c1.88-1.9,4.14-2.85,6.78-2.85
				c1.53,0,2.91,0.32,4.14,0.97c1.24,0.65,2.32,1.62,3.26,2.92v-3.42H434.97z M425.41,568.25c-1.33,0-2.56,0.33-3.69,0.98
				s-2.02,1.57-2.69,2.76c-0.67,1.18-1,2.44-1,3.75c0,1.31,0.34,2.56,1.01,3.76c0.67,1.2,1.57,2.12,2.71,2.79s2.35,1,3.64,1
				c1.31,0,2.55-0.33,3.72-0.99c1.17-0.66,2.07-1.55,2.71-2.68c0.63-1.13,0.95-2.4,0.95-3.81c0-2.15-0.71-3.95-2.13-5.39
				C429.22,568.97,427.48,568.25,425.41,568.25z"/>
			<path class="st2" d="M442.28,566.42h2.44v2.72c0.73-1.07,1.5-1.87,2.31-2.4c0.81-0.53,1.65-0.79,2.53-0.79
				c0.66,0,1.37,0.21,2.12,0.63l-1.25,2.02c-0.5-0.22-0.92-0.32-1.26-0.32c-0.8,0-1.57,0.33-2.31,0.98
				c-0.74,0.66-1.3,1.67-1.69,3.05c-0.3,1.06-0.44,3.2-0.44,6.43v6.29h-2.44V566.42z"/>
			<path class="st2" d="M456.53,559.25h2.39v14.68l8.62-7.5h3.51l-10.22,8.87l10.82,9.72h-3.37l-9.36-8.37v8.37h-2.39V559.25z"/>
			<path class="st2" d="M492.61,578.85l2.02,1.06c-0.66,1.3-1.43,2.35-2.29,3.14c-0.87,0.8-1.84,1.4-2.93,1.82
				c-1.08,0.42-2.31,0.62-3.68,0.62c-3.03,0-5.41-0.99-7.12-2.98c-1.71-1.99-2.57-4.24-2.57-6.74c0-2.36,0.72-4.46,2.17-6.31
				c1.84-2.35,4.29-3.52,7.37-3.52c3.17,0,5.7,1.2,7.59,3.61c1.35,1.7,2.03,3.82,2.05,6.36h-16.73c0.05,2.16,0.74,3.93,2.07,5.31
				s2.98,2.07,4.94,2.07c0.95,0,1.87-0.16,2.76-0.49c0.9-0.33,1.66-0.77,2.28-1.31C491.2,580.94,491.88,580.06,492.61,578.85z
				 M492.61,573.84c-0.32-1.28-0.78-2.3-1.39-3.06c-0.61-0.76-1.42-1.38-2.42-1.85c-1-0.47-2.06-0.7-3.17-0.7
				c-1.83,0-3.39,0.59-4.71,1.76c-0.96,0.85-1.68,2.14-2.17,3.84H492.61z"/>
			<path class="st2" d="M504.62,559.52h2.39v6.9h3.79v2.07h-3.79v16.53h-2.39v-16.53h-3.26v-2.07h3.26V559.52z"/>
			<path class="st2" d="M518.06,558.77c0.54,0,1.01,0.19,1.39,0.58c0.39,0.39,0.58,0.85,0.58,1.4c0,0.54-0.19,1-0.58,1.38
				c-0.39,0.39-0.85,0.58-1.39,0.58c-0.53,0-0.99-0.19-1.38-0.58c-0.39-0.39-0.58-0.85-0.58-1.38c0-0.55,0.19-1.01,0.58-1.4
				C517.06,558.96,517.52,558.77,518.06,558.77z M516.87,566.42h2.39v18.59h-2.39V566.42z"/>
			<path class="st2" d="M527.07,566.42h2.39v3.33c0.96-1.28,2.02-2.23,3.18-2.86c1.16-0.63,2.43-0.95,3.79-0.95
				c1.39,0,2.62,0.35,3.7,1.06c1.08,0.71,1.87,1.66,2.38,2.85c0.51,1.2,0.77,3.06,0.77,5.59v9.57h-2.39v-8.87
				c0-2.14-0.09-3.57-0.27-4.29c-0.28-1.23-0.81-2.16-1.6-2.78c-0.79-0.62-1.81-0.93-3.08-0.93c-1.45,0-2.74,0.48-3.89,1.44
				c-1.15,0.96-1.9,2.14-2.26,3.55c-0.23,0.92-0.34,2.61-0.34,5.06v6.82h-2.39V566.42z"/>
			<path class="st2" d="M567.28,566.42h2.39v14.82c0,2.61-0.23,4.52-0.68,5.73c-0.63,1.71-1.71,3.02-3.26,3.95
				c-1.55,0.92-3.41,1.38-5.59,1.38c-1.6,0-3.03-0.23-4.3-0.68c-1.27-0.45-2.3-1.06-3.1-1.82c-0.8-0.76-1.53-1.87-2.2-3.33h2.6
				c0.71,1.23,1.62,2.14,2.74,2.73c1.12,0.59,2.5,0.89,4.16,0.89c1.63,0,3.01-0.3,4.13-0.91c1.12-0.61,1.93-1.37,2.4-2.29
				c0.48-0.92,0.72-2.41,0.72-4.45v-0.96c-0.9,1.14-2,2.01-3.3,2.62s-2.68,0.91-4.14,0.91c-1.71,0-3.32-0.42-4.82-1.27
				c-1.51-0.85-2.67-1.99-3.49-3.43s-1.23-3.01-1.23-4.73c0-1.72,0.43-3.32,1.28-4.81c0.86-1.49,2.04-2.66,3.55-3.53
				c1.51-0.87,3.1-1.3,4.78-1.3c1.39,0,2.69,0.29,3.89,0.86s2.36,1.52,3.48,2.85V566.42z M560.22,568.25
				c-1.36,0-2.62,0.33-3.78,0.98s-2.07,1.56-2.73,2.72c-0.66,1.16-0.99,2.41-0.99,3.75c0,2.04,0.68,3.73,2.05,5.06
				c1.37,1.33,3.14,2,5.32,2c2.2,0,3.97-0.66,5.31-1.98c1.34-1.32,2.01-3.06,2.01-5.21c0-1.4-0.31-2.65-0.92-3.75
				c-0.62-1.1-1.49-1.97-2.61-2.61C562.73,568.57,561.52,568.25,560.22,568.25z"/>
		</g>
	</g>
	<g>
		<g>
			<path class="st1" d="M445.93,450.88h14.41v2.46h-11.89v7.88h11.79v2.46h-11.79v9.88h11.79v2.46h-14.3V450.88z"/>
			<path class="st1" d="M467.12,457.42h2.39v3.33c0.96-1.28,2.02-2.23,3.18-2.86c1.16-0.63,2.43-0.95,3.79-0.95
				c1.39,0,2.62,0.35,3.7,1.06c1.08,0.71,1.87,1.66,2.38,2.85c0.51,1.2,0.77,3.06,0.77,5.59v9.57h-2.39v-8.87
				c0-2.14-0.09-3.57-0.27-4.29c-0.28-1.23-0.81-2.16-1.6-2.78c-0.79-0.62-1.81-0.93-3.08-0.93c-1.45,0-2.74,0.48-3.89,1.44
				c-1.15,0.96-1.9,2.14-2.26,3.55c-0.23,0.92-0.34,2.61-0.34,5.06v6.82h-2.39V457.42z"/>
			<path class="st1" d="M507.33,457.42h2.39v14.82c0,2.61-0.23,4.52-0.68,5.73c-0.63,1.71-1.71,3.02-3.26,3.95
				c-1.55,0.92-3.41,1.38-5.59,1.38c-1.6,0-3.03-0.23-4.3-0.68c-1.27-0.45-2.3-1.06-3.1-1.82c-0.8-0.76-1.53-1.87-2.2-3.33h2.6
				c0.71,1.23,1.62,2.14,2.74,2.73c1.12,0.59,2.5,0.89,4.16,0.89c1.63,0,3.01-0.3,4.13-0.91c1.12-0.61,1.92-1.37,2.4-2.29
				c0.48-0.92,0.72-2.41,0.72-4.45v-0.96c-0.9,1.14-2,2.01-3.3,2.62c-1.3,0.61-2.68,0.91-4.14,0.91c-1.71,0-3.32-0.42-4.82-1.27
				c-1.51-0.85-2.67-1.99-3.49-3.43c-0.82-1.44-1.23-3.01-1.23-4.73c0-1.72,0.43-3.32,1.28-4.81c0.85-1.49,2.04-2.66,3.55-3.53
				c1.51-0.87,3.1-1.3,4.78-1.3c1.39,0,2.69,0.29,3.89,0.86c1.2,0.58,2.36,1.52,3.48,2.85V457.42z M500.27,459.25
				c-1.36,0-2.61,0.33-3.78,0.98s-2.07,1.56-2.73,2.72c-0.66,1.16-0.99,2.41-0.99,3.75c0,2.04,0.68,3.73,2.05,5.06
				c1.37,1.33,3.14,2,5.31,2c2.2,0,3.97-0.66,5.31-1.98c1.34-1.32,2.01-3.06,2.01-5.21c0-1.4-0.31-2.65-0.92-3.75
				c-0.62-1.1-1.49-1.97-2.62-2.61C502.78,459.57,501.57,459.25,500.27,459.25z"/>
			<path class="st1" d="M518.51,449.77c0.54,0,1.01,0.19,1.4,0.58c0.39,0.39,0.58,0.85,0.58,1.4c0,0.54-0.19,1-0.58,1.38
				c-0.39,0.39-0.85,0.58-1.4,0.58c-0.53,0-0.99-0.19-1.38-0.58c-0.39-0.39-0.58-0.85-0.58-1.38c0-0.55,0.19-1.01,0.58-1.4
				C517.52,449.96,517.98,449.77,518.51,449.77z M517.32,457.42h2.39v18.59h-2.39V457.42z"/>
			<path class="st1" d="M527.52,457.42h2.39v3.33c0.96-1.28,2.02-2.23,3.18-2.86c1.16-0.63,2.43-0.95,3.79-0.95
				c1.39,0,2.62,0.35,3.7,1.06c1.08,0.71,1.87,1.66,2.38,2.85c0.51,1.2,0.77,3.06,0.77,5.59v9.57h-2.39v-8.87
				c0-2.14-0.09-3.57-0.27-4.29c-0.28-1.23-0.81-2.16-1.59-2.78c-0.79-0.62-1.81-0.93-3.08-0.93c-1.45,0-2.74,0.48-3.89,1.44
				s-1.9,2.14-2.26,3.55c-0.23,0.92-0.34,2.61-0.34,5.06v6.82h-2.39V457.42z"/>
			<path class="st1" d="M567.36,469.85l2.02,1.06c-0.66,1.3-1.43,2.35-2.29,3.14c-0.87,0.8-1.84,1.4-2.93,1.82
				c-1.08,0.42-2.31,0.62-3.68,0.62c-3.03,0-5.41-0.99-7.12-2.98c-1.71-1.99-2.57-4.24-2.57-6.74c0-2.36,0.72-4.46,2.17-6.31
				c1.84-2.35,4.29-3.52,7.37-3.52c3.17,0,5.7,1.2,7.59,3.61c1.35,1.7,2.03,3.82,2.05,6.36h-16.73c0.05,2.16,0.74,3.93,2.07,5.31
				c1.33,1.38,2.98,2.07,4.95,2.07c0.95,0,1.87-0.16,2.76-0.49c0.89-0.33,1.66-0.77,2.28-1.31
				C565.95,471.94,566.63,471.06,567.36,469.85z M567.36,464.84c-0.32-1.28-0.78-2.3-1.39-3.06c-0.61-0.76-1.42-1.38-2.42-1.85
				c-1-0.47-2.06-0.7-3.17-0.7c-1.83,0-3.39,0.59-4.71,1.76c-0.96,0.85-1.68,2.14-2.17,3.84H567.36z"/>
			<path class="st1" d="M592.94,469.85l2.02,1.06c-0.66,1.3-1.42,2.35-2.29,3.14c-0.87,0.8-1.84,1.4-2.92,1.82
				c-1.08,0.42-2.31,0.62-3.68,0.62c-3.03,0-5.41-0.99-7.12-2.98c-1.71-1.99-2.57-4.24-2.57-6.74c0-2.36,0.72-4.46,2.17-6.31
				c1.84-2.35,4.29-3.52,7.37-3.52c3.17,0,5.7,1.2,7.59,3.61c1.35,1.7,2.03,3.82,2.05,6.36h-16.73c0.04,2.16,0.74,3.93,2.07,5.31
				c1.33,1.38,2.98,2.07,4.94,2.07c0.95,0,1.87-0.16,2.76-0.49s1.66-0.77,2.28-1.31C591.53,471.94,592.21,471.06,592.94,469.85z
				 M592.94,464.84c-0.32-1.28-0.78-2.3-1.39-3.06c-0.61-0.76-1.42-1.38-2.42-1.85c-1-0.47-2.06-0.7-3.17-0.7
				c-1.83,0-3.39,0.59-4.71,1.76c-0.96,0.85-1.68,2.14-2.17,3.84H592.94z"/>
			<path class="st1" d="M601.96,457.42h2.44v2.72c0.73-1.07,1.5-1.87,2.31-2.4c0.81-0.53,1.65-0.79,2.53-0.79
				c0.66,0,1.37,0.21,2.12,0.63l-1.25,2.02c-0.5-0.22-0.92-0.32-1.26-0.32c-0.8,0-1.57,0.33-2.31,0.98
				c-0.74,0.66-1.3,1.67-1.69,3.05c-0.3,1.06-0.44,3.2-0.44,6.43v6.29h-2.44V457.42z"/>
			<path class="st1" d="M617.06,449.77c0.54,0,1.01,0.19,1.4,0.58c0.39,0.39,0.58,0.85,0.58,1.4c0,0.54-0.19,1-0.58,1.38
				c-0.39,0.39-0.85,0.58-1.4,0.58c-0.53,0-0.99-0.19-1.38-0.58c-0.39-0.39-0.58-0.85-0.58-1.38c0-0.55,0.19-1.01,0.58-1.4
				C616.06,449.96,616.52,449.77,617.06,449.77z M615.87,457.42h2.39v18.59h-2.39V457.42z"/>
			<path class="st1" d="M626.07,457.42h2.39v3.33c0.96-1.28,2.02-2.23,3.18-2.86c1.16-0.63,2.43-0.95,3.79-0.95
				c1.39,0,2.62,0.35,3.7,1.06c1.08,0.71,1.87,1.66,2.38,2.85c0.51,1.2,0.77,3.06,0.77,5.59v9.57h-2.39v-8.87
				c0-2.14-0.09-3.57-0.27-4.29c-0.28-1.23-0.81-2.16-1.6-2.78c-0.79-0.62-1.81-0.93-3.08-0.93c-1.45,0-2.74,0.48-3.89,1.44
				s-1.9,2.14-2.26,3.55c-0.23,0.92-0.34,2.61-0.34,5.06v6.82h-2.39V457.42z"/>
			<path class="st1" d="M666.28,457.42h2.39v14.82c0,2.61-0.23,4.52-0.68,5.73c-0.63,1.71-1.71,3.02-3.26,3.95
				c-1.55,0.92-3.41,1.38-5.59,1.38c-1.6,0-3.03-0.23-4.3-0.68c-1.27-0.45-2.3-1.06-3.1-1.82c-0.8-0.76-1.53-1.87-2.2-3.33h2.6
				c0.71,1.23,1.62,2.14,2.74,2.73c1.12,0.59,2.5,0.89,4.16,0.89c1.63,0,3.01-0.3,4.13-0.91c1.12-0.61,1.93-1.37,2.4-2.29
				c0.48-0.92,0.72-2.41,0.72-4.45v-0.96c-0.9,1.14-2,2.01-3.3,2.62s-2.68,0.91-4.14,0.91c-1.71,0-3.32-0.42-4.82-1.27
				c-1.51-0.85-2.67-1.99-3.49-3.43s-1.23-3.01-1.23-4.73c0-1.72,0.43-3.32,1.28-4.81c0.86-1.49,2.04-2.66,3.55-3.53
				c1.51-0.87,3.1-1.3,4.78-1.3c1.39,0,2.69,0.29,3.89,0.86s2.36,1.52,3.48,2.85V457.42z M659.22,459.25
				c-1.36,0-2.62,0.33-3.78,0.98s-2.07,1.56-2.73,2.72c-0.66,1.16-0.99,2.41-0.99,3.75c0,2.04,0.68,3.73,2.05,5.06
				c1.37,1.33,3.14,2,5.32,2c2.2,0,3.97-0.66,5.31-1.98c1.34-1.32,2.01-3.06,2.01-5.21c0-1.4-0.31-2.65-0.92-3.75
				c-0.62-1.1-1.49-1.97-2.61-2.61C661.73,459.57,660.52,459.25,659.22,459.25z"/>
		</g>
	</g>
	<g>
		<g>
			<path class="st2" d="M290.13,499.36l-34.23,34.23c3.51,2.53,7.24,3.6,11.17,3.24c3.93-0.36,7.56-2.21,10.89-5.54
				c3.98-3.98,6.01-8.8,6.09-14.44l13.19-4.76c0.94,5.41,0.6,10.44-1,15.09c-1.6,4.64-4.55,9.12-8.84,13.41
				c-6.66,6.66-14.19,9.99-22.58,9.97c-8.39-0.01-15.75-3.18-22.07-9.5c-6.48-6.48-9.77-13.95-9.88-22.41
				c-0.1-8.46,2.99-15.83,9.29-22.13c6.69-6.69,14.27-9.98,22.74-9.89c8.47,0.09,16.22,3.65,23.25,10.68L290.13,499.36z
				 M271.08,501.62c-3.07-1.66-6.38-2.2-9.94-1.61s-6.7,2.25-9.44,4.99c-2.97,2.97-4.74,6.41-5.32,10.32
				c-0.37,2.45,0.17,5.59,1.59,9.41L271.08,501.62z"/>
		</g>
	</g>
	<path class="st2" d="M320.5,420.16c0,20.99,0-7.17,0,13.86c-5.28,0-10.43,0-15.7,0c0-26.21,0-3.35,0-29.61
		c0.39-0.04,0.74-0.11,1.08-0.11c26.25-0.01,52.49-0.12,78.74,0.03c18.29,0.11,34.94,14.99,37.48,33.1
		c1.74,12.39-1.39,23.35-9.72,32.75c-0.16,0.18-0.32,0.36-0.46,0.56c-0.06,0.09-0.06,0.23,0.02-0.12c3.9,2.91,8.05,5.31,11.33,8.58
		c12.11,12.07,16.04,26.64,10.78,42.92c-5.26,16.27-17.01,25.65-33.84,28.6c-1.66,0.29-3.37,0.4-5.06,0.4
		c-15.12,0.03-30.24,0.02-45.36,0.02c-0.36,0-0.71,0-1.24,0c0-35.6,0-22.82,0-58.47c5.11,0,10.21,0,15.51,0c0,30.26,0,12.17,0,42.55
		c0.75,0.06,1.33,0.14,1.9,0.14c9.37,0.01,18.75,0.05,28.12-0.01c13.28-0.08,23.68-8.9,26.03-22c2.61-14.51-8.78-29.25-23.48-30.01
		c-7.3-0.38-38.63-0.13-45.95-0.17c-0.71,0-1.42,0-2.17,0c0-5.35,0-10.46,0-15.76c3.59,0,31.08,0.01,34.57,0
		c13.45-0.03,24.14-11.04,23.77-24.48c-0.33-12.02-10.11-22.23-22.09-22.78c-5.85-0.27-11.73-0.09-17.59-0.1
		c-15.18-0.02-30.36-0.02-45.54-0.02C321.35,420.04,321.05,420.1,320.5,420.16z"/>
	<path class="st1" d="M342.24,551.08c-5.32,0-10.38,0-15.56,0c0-30.2,0-54.17,0-84.42c5.21,0,10.31,0,15.56,0
		C342.24,496.85,342.24,520.83,342.24,551.08z"/>
	<path class="st1" d="M320.37,551.07c-5.29,0-10.36,0-15.57,0c0-19.8,0-88.54,0-108.42c5.19,0,10.34,0,15.57,0
		C320.37,462.47,320.37,531.21,320.37,551.07z"/>
</g>
</svg>
