<svg xmlns="http://www.w3.org/2000/svg" width="246.927" height="86.913" viewBox="0 0 246.927 86.913">
  <g id="Bonyan_Logo" data-name="Bonyan Logo" transform="translate(-232.868 -404.252)">
    <g id="Group_10843" data-name="Group 10843" transform="translate(232.868 404.252)">
      <g id="Group_10836" data-name="Group 10836" transform="translate(97.868 38.333)">
        <g id="Group_10835" data-name="Group 10835">
          <path id="Path_5424" data-name="Path 5424" d="M459.128,487.2a14.825,14.825,0,0,1,7.446,1.983,14.521,14.521,0,0,1,7.395,12.705A14.7,14.7,0,0,1,472,509.3a14.226,14.226,0,0,1-5.361,5.389,14.826,14.826,0,0,1-7.487,1.941,13.955,13.955,0,0,1-10.274-4.284,14.832,14.832,0,0,1,.555-21.334A14.044,14.044,0,0,1,459.128,487.2Zm.116,6.614a7.218,7.218,0,0,0-5.449,2.279,8.088,8.088,0,0,0-2.177,5.828,8.217,8.217,0,0,0,2.154,5.916,7.183,7.183,0,0,0,5.449,2.265,7.268,7.268,0,0,0,5.486-2.288,9.023,9.023,0,0,0,.037-11.744A7.255,7.255,0,0,0,459.243,493.814Z" transform="translate(-444.62 -487.195)" fill="#22274e"/>
          <path id="Path_5425" data-name="Path 5425" d="M516.3,487.926h7.021v2.87a17.045,17.045,0,0,1,4.326-2.8,10.428,10.428,0,0,1,3.97-.786,9.606,9.606,0,0,1,7.062,2.907q2.44,2.468,2.44,7.307v18.5h-6.947V503.659a30.977,30.977,0,0,0-.448-6.655,4.566,4.566,0,0,0-1.567-2.505,4.387,4.387,0,0,0-2.759-.86,5.164,5.164,0,0,0-3.656,1.428,7.618,7.618,0,0,0-2.117,3.942,31.983,31.983,0,0,0-.31,5.68v11.226H516.3v-27.99Z" transform="translate(-483.171 -487.201)" fill="#22274e"/>
          <path id="Path_5426" data-name="Path 5426" d="M573.78,488.76h7.178l7.27,17.558,8.023-17.558h7.2l-17.526,38.223H578.67l5.754-12.326Z" transform="translate(-514.084 -488.034)" fill="#22274e"/>
          <path id="Path_5427" data-name="Path 5427" d="M661.56,487.916h7.021V515.9H661.56v-2.958a13.72,13.72,0,0,1-4.123,2.815,11.564,11.564,0,0,1-4.483.86,12.451,12.451,0,0,1-9.378-4.206,14.669,14.669,0,0,1-3.956-10.455,15.047,15.047,0,0,1,3.827-10.626,12.2,12.2,0,0,1,9.3-4.141,11.855,11.855,0,0,1,4.728.952A12.86,12.86,0,0,1,661.56,491Zm-7.381,5.763a7.085,7.085,0,0,0-5.408,2.3,8.289,8.289,0,0,0-2.154,5.9,8.381,8.381,0,0,0,2.191,5.967,7.092,7.092,0,0,0,5.4,2.339,7.233,7.233,0,0,0,5.486-2.3,8.418,8.418,0,0,0,2.177-6.031,8.173,8.173,0,0,0-2.177-5.916A7.345,7.345,0,0,0,654.179,493.679Z" transform="translate(-549.494 -487.19)" fill="#22274e"/>
          <path id="Path_5428" data-name="Path 5428" d="M713.425,487.926h7.021v2.87a17.043,17.043,0,0,1,4.326-2.8,10.428,10.428,0,0,1,3.97-.786,9.606,9.606,0,0,1,7.062,2.907q2.44,2.468,2.44,7.307v18.5H731.3V503.659a30.973,30.973,0,0,0-.448-6.655,4.566,4.566,0,0,0-1.567-2.505,4.387,4.387,0,0,0-2.759-.86,5.164,5.164,0,0,0-3.656,1.428,7.618,7.618,0,0,0-2.117,3.942,31.972,31.972,0,0,0-.31,5.68v11.226H713.42v-27.99Z" transform="translate(-589.185 -487.201)" fill="#22274e"/>
        </g>
      </g>
      <g id="Group_10838" data-name="Group 10838" transform="translate(4.72 71.416)">
        <g id="Group_10837" data-name="Group 10837">
          <path id="Path_5429" data-name="Path 5429" d="M243.08,571.5V559.88h2.408a12.217,12.217,0,0,1,3.785.421,5.075,5.075,0,0,1,2.644,2.052,6.255,6.255,0,0,1,.952,3.485,6.108,6.108,0,0,1-.753,3.073,4.845,4.845,0,0,1-1.96,1.96,7.388,7.388,0,0,1-3.379.633h-3.7Zm1.114-1.1h1.345a12.594,12.594,0,0,0,3.342-.3,3.838,3.838,0,0,0,2.061-1.535,4.73,4.73,0,0,0,.749-2.713,5,5,0,0,0-.813-2.875,4.073,4.073,0,0,0-2.265-1.631,13.646,13.646,0,0,0-3.6-.333h-.823Z" transform="translate(-243.08 -559.367)" fill="#22274e"/>
          <path id="Path_5430" data-name="Path 5430" d="M271.346,558.77a.915.915,0,0,1,.915.915.856.856,0,0,1-.268.638.909.909,0,1,1-.647-1.553Zm-.55,3.536h1.1V570.9h-1.1Z" transform="translate(-257.795 -558.77)" fill="#22274e"/>
          <path id="Path_5431" data-name="Path 5431" d="M288.313,566.162h1.1v6.849a8.186,8.186,0,0,1-.314,2.648,3.455,3.455,0,0,1-1.507,1.826,4.97,4.97,0,0,1-2.584.638,5.921,5.921,0,0,1-1.987-.314,3.976,3.976,0,0,1-1.433-.841,4.964,4.964,0,0,1-1.017-1.539h1.2a3.164,3.164,0,0,0,1.266,1.262,4.081,4.081,0,0,0,1.923.411,3.951,3.951,0,0,0,1.909-.421,2.6,2.6,0,0,0,1.109-1.058,4.715,4.715,0,0,0,.333-2.057v-.444a4.177,4.177,0,0,1-1.525,1.211,4.541,4.541,0,0,1-4.141-.166,4.157,4.157,0,0,1-1.613-1.585,4.333,4.333,0,0,1-.568-2.186,4.411,4.411,0,0,1,.592-2.223,4.5,4.5,0,0,1,3.85-2.232,4.143,4.143,0,0,1,1.8.4,4.971,4.971,0,0,1,1.608,1.317v-1.493Zm-3.263.846a3.529,3.529,0,0,0-1.747.453,3.236,3.236,0,0,0-1.262,1.257,3.447,3.447,0,0,0-.458,1.733,3.121,3.121,0,0,0,.948,2.339,3.734,3.734,0,0,0,4.908.009,3.232,3.232,0,0,0,.929-2.408,3.514,3.514,0,0,0-.425-1.733,3.152,3.152,0,0,0-1.206-1.206A3.373,3.373,0,0,0,285.05,567.008Z" transform="translate(-263.189 -562.626)" fill="#22274e"/>
          <path id="Path_5432" data-name="Path 5432" d="M307.576,558.77a.915.915,0,0,1,.915.915.856.856,0,0,1-.268.638.909.909,0,1,1-1.285-1.285A.856.856,0,0,1,307.576,558.77Zm-.55,3.536h1.1V570.9h-1.1Z" transform="translate(-277.28 -558.77)" fill="#22274e"/>
          <path id="Path_5433" data-name="Path 5433" d="M317.967,559.52h1.1v3.189h1.752v.957h-1.752v7.64h-1.1v-7.64H316.46v-.957h1.507Z" transform="translate(-282.545 -559.173)" fill="#22274e"/>
          <path id="Path_5434" data-name="Path 5434" d="M340.448,566.162v8.592h-1.091v-1.479a4.688,4.688,0,0,1-1.562,1.271,4.36,4.36,0,0,1-5.005-.9,4.44,4.44,0,0,1-1.29-3.217,4.351,4.351,0,0,1,1.3-3.175,4.25,4.25,0,0,1,3.134-1.317,4.031,4.031,0,0,1,1.913.448,4.367,4.367,0,0,1,1.507,1.35v-1.581h1.091Zm-4.418.846a3.363,3.363,0,0,0-1.705.453,3.3,3.3,0,0,0-1.243,1.276,3.467,3.467,0,0,0-.462,1.733,3.514,3.514,0,0,0,.467,1.738,3.359,3.359,0,0,0,1.253,1.289,3.26,3.26,0,0,0,1.682.462,3.446,3.446,0,0,0,1.719-.458,3.226,3.226,0,0,0,1.253-1.239,3.555,3.555,0,0,0,.439-1.761,3.408,3.408,0,0,0-.984-2.491A3.247,3.247,0,0,0,336.029,567.008Z" transform="translate(-290.634 -562.626)" fill="#22274e"/>
          <path id="Path_5435" data-name="Path 5435" d="M358.72,559.25h1.1v11.91h-1.1Z" transform="translate(-305.273 -559.028)" fill="#22274e"/>
          <path id="Path_5436" data-name="Path 5436" d="M380.69,571.5l1.664-11.619h.189l4.724,9.535,4.677-9.535h.185L393.8,571.5h-1.137l-1.146-8.31-4.109,8.31h-.3l-4.155-8.375-1.142,8.375Z" transform="translate(-317.089 -559.367)" fill="#f07f1a"/>
          <path id="Path_5437" data-name="Path 5437" d="M424.558,566.162v8.592h-1.091v-1.479a4.687,4.687,0,0,1-1.562,1.271,4.36,4.36,0,0,1-5.005-.9,4.439,4.439,0,0,1-1.289-3.217,4.351,4.351,0,0,1,1.3-3.175,4.25,4.25,0,0,1,3.134-1.317,4.031,4.031,0,0,1,1.913.448,4.367,4.367,0,0,1,1.507,1.35v-1.581h1.091Zm-4.418.846a3.363,3.363,0,0,0-1.705.453,3.3,3.3,0,0,0-1.243,1.276,3.467,3.467,0,0,0-.462,1.733,3.514,3.514,0,0,0,.467,1.738,3.36,3.36,0,0,0,1.253,1.289,3.26,3.26,0,0,0,1.682.462,3.446,3.446,0,0,0,1.719-.458,3.227,3.227,0,0,0,1.253-1.239,3.556,3.556,0,0,0,.439-1.761,3.408,3.408,0,0,0-.984-2.491A3.247,3.247,0,0,0,420.139,567.008Z" transform="translate(-335.87 -562.626)" fill="#f07f1a"/>
          <path id="Path_5438" data-name="Path 5438" d="M442.28,566.167h1.128v1.257a3.971,3.971,0,0,1,1.068-1.109,2.1,2.1,0,0,1,1.169-.365,2.023,2.023,0,0,1,.98.291l-.578.934a1.493,1.493,0,0,0-.582-.148,1.609,1.609,0,0,0-1.068.453,2.889,2.889,0,0,0-.781,1.41,13.455,13.455,0,0,0-.2,2.972v2.907h-1.128v-8.6Z" transform="translate(-350.213 -562.632)" fill="#f07f1a"/>
          <path id="Path_5439" data-name="Path 5439" d="M456.53,559.25h1.1v6.785l3.984-3.466h1.622l-4.724,4.1,5,4.492h-1.558l-4.326-3.868v3.868h-1.1V559.25Z" transform="translate(-357.877 -559.028)" fill="#f07f1a"/>
          <path id="Path_5440" data-name="Path 5440" d="M483.7,571.907l.934.49a5.059,5.059,0,0,1-1.058,1.451,4.212,4.212,0,0,1-1.354.841,4.673,4.673,0,0,1-1.7.287,4.11,4.11,0,0,1-3.291-1.377,4.658,4.658,0,0,1-1.188-3.115,4.6,4.6,0,0,1,1-2.916,4.1,4.1,0,0,1,3.406-1.627,4.228,4.228,0,0,1,3.508,1.668,4.639,4.639,0,0,1,.947,2.939h-7.732a3.514,3.514,0,0,0,.957,2.454,3.046,3.046,0,0,0,2.283.957,3.637,3.637,0,0,0,1.276-.227,3.336,3.336,0,0,0,1.054-.605A4.88,4.88,0,0,0,483.7,571.907Zm0-2.315a3.651,3.651,0,0,0-.642-1.414,3.1,3.1,0,0,0-1.118-.855,3.406,3.406,0,0,0-1.465-.324,3.166,3.166,0,0,0-2.177.813,3.668,3.668,0,0,0-1,1.775H483.7Z" transform="translate(-368.37 -562.626)" fill="#f07f1a"/>
          <path id="Path_5441" data-name="Path 5441" d="M502.867,559.52h1.1v3.189h1.752v.957h-1.752v7.64h-1.1v-7.64H501.36v-.957h1.507Z" transform="translate(-381.987 -559.173)" fill="#f07f1a"/>
          <path id="Path_5442" data-name="Path 5442" d="M517.006,558.77a.866.866,0,0,1,.642.268.876.876,0,0,1,.268.647.856.856,0,0,1-.268.638.907.907,0,1,1-1.28-1.285A.856.856,0,0,1,517.006,558.77Zm-.55,3.536h1.1V570.9h-1.1Z" transform="translate(-389.915 -558.77)" fill="#f07f1a"/>
          <path id="Path_5443" data-name="Path 5443" d="M527.065,566.162h1.1V567.7a4.61,4.61,0,0,1,1.47-1.322,3.622,3.622,0,0,1,1.752-.439,3.037,3.037,0,0,1,1.71.49,2.915,2.915,0,0,1,1.1,1.317,7.011,7.011,0,0,1,.356,2.584v4.423h-1.1v-4.1a9.976,9.976,0,0,0-.125-1.983,2.18,2.18,0,0,0-.74-1.285,2.232,2.232,0,0,0-1.423-.43,2.726,2.726,0,0,0-1.8.665,3.083,3.083,0,0,0-1.045,1.641,11.365,11.365,0,0,0-.157,2.339v3.152h-1.1v-8.592Z" transform="translate(-395.809 -562.626)" fill="#f07f1a"/>
          <path id="Path_5444" data-name="Path 5444" d="M558.153,566.162h1.1v6.849a8.186,8.186,0,0,1-.314,2.648,3.456,3.456,0,0,1-1.507,1.826,4.971,4.971,0,0,1-2.584.638,5.921,5.921,0,0,1-1.987-.314,3.975,3.975,0,0,1-1.433-.841,4.962,4.962,0,0,1-1.017-1.539h1.2a3.164,3.164,0,0,0,1.266,1.262,4.081,4.081,0,0,0,1.923.411,3.951,3.951,0,0,0,1.909-.421,2.57,2.57,0,0,0,1.109-1.058,4.716,4.716,0,0,0,.333-2.057v-.444a4.177,4.177,0,0,1-1.525,1.211,4.541,4.541,0,0,1-4.141-.166,4.158,4.158,0,0,1-1.613-1.585,4.334,4.334,0,0,1-.568-2.186,4.419,4.419,0,0,1,2.232-3.855,4.352,4.352,0,0,1,2.209-.6,4.143,4.143,0,0,1,1.8.4,4.91,4.91,0,0,1,1.608,1.317v-1.493Zm-3.263.846a3.517,3.517,0,0,0-1.747.453,3.266,3.266,0,0,0-1.262,1.257,3.447,3.447,0,0,0-.458,1.733,3.121,3.121,0,0,0,.947,2.339,3.381,3.381,0,0,0,2.459.924,3.346,3.346,0,0,0,2.454-.915,3.232,3.232,0,0,0,.929-2.408,3.514,3.514,0,0,0-.425-1.733,3.152,3.152,0,0,0-1.206-1.206A3.415,3.415,0,0,0,554.89,567.008Z" transform="translate(-408.313 -562.626)" fill="#f07f1a"/>
        </g>
      </g>
      <g id="Group_10840" data-name="Group 10840" transform="translate(98.474 21.038)">
        <g id="Group_10839" data-name="Group 10839">
          <path id="Path_5445" data-name="Path 5445" d="M445.93,450.88h6.66v1.137h-5.5v3.642h5.449V456.8h-5.449v4.566h5.449V462.5h-6.609V450.88Z" transform="translate(-445.93 -450.367)" fill="#22274e"/>
          <path id="Path_5446" data-name="Path 5446" d="M467.115,457.162h1.1V458.7a4.609,4.609,0,0,1,1.47-1.322,3.622,3.622,0,0,1,1.752-.439,3.037,3.037,0,0,1,1.71.49,2.915,2.915,0,0,1,1.1,1.317,7.01,7.01,0,0,1,.356,2.584v4.423h-1.1v-4.1a9.983,9.983,0,0,0-.125-1.983,2.18,2.18,0,0,0-.74-1.285,2.232,2.232,0,0,0-1.424-.43,2.726,2.726,0,0,0-1.8.666,3.083,3.083,0,0,0-1.045,1.641,11.367,11.367,0,0,0-.157,2.339v3.152h-1.1v-8.592Z" transform="translate(-457.321 -453.626)" fill="#22274e"/>
          <path id="Path_5447" data-name="Path 5447" d="M498.2,457.162h1.1v6.85a8.188,8.188,0,0,1-.314,2.648,3.455,3.455,0,0,1-1.507,1.826,4.969,4.969,0,0,1-2.584.638,5.918,5.918,0,0,1-1.987-.314,3.974,3.974,0,0,1-1.433-.841,4.962,4.962,0,0,1-1.017-1.539h1.2a3.165,3.165,0,0,0,1.266,1.262,4.081,4.081,0,0,0,1.923.411,3.951,3.951,0,0,0,1.909-.421,2.6,2.6,0,0,0,1.109-1.058,4.717,4.717,0,0,0,.333-2.057v-.444a4.179,4.179,0,0,1-1.525,1.211,4.54,4.54,0,0,1-4.141-.166,4.156,4.156,0,0,1-1.613-1.585,4.333,4.333,0,0,1-.569-2.186,4.41,4.41,0,0,1,.592-2.223,4.5,4.5,0,0,1,3.85-2.232,4.143,4.143,0,0,1,1.8.4,4.972,4.972,0,0,1,1.608,1.317v-1.493Zm-3.263.846a3.529,3.529,0,0,0-1.747.453,3.235,3.235,0,0,0-1.262,1.257,3.447,3.447,0,0,0-.458,1.733,3.121,3.121,0,0,0,.947,2.339,3.734,3.734,0,0,0,4.908.009,3.231,3.231,0,0,0,.929-2.408,3.515,3.515,0,0,0-.425-1.733,3.132,3.132,0,0,0-1.211-1.206A3.354,3.354,0,0,0,494.94,458.008Z" transform="translate(-469.825 -453.626)" fill="#22274e"/>
          <path id="Path_5448" data-name="Path 5448" d="M517.456,449.77a.915.915,0,0,1,.915.915.855.855,0,0,1-.268.638.909.909,0,1,1-.647-1.553Zm-.55,3.536h1.1V461.9h-1.1Z" transform="translate(-483.911 -449.77)" fill="#22274e"/>
          <path id="Path_5449" data-name="Path 5449" d="M527.52,457.162h1.1V458.7a4.609,4.609,0,0,1,1.47-1.322,3.622,3.622,0,0,1,1.752-.439,3.037,3.037,0,0,1,1.71.49,2.914,2.914,0,0,1,1.1,1.317,7.008,7.008,0,0,1,.356,2.584v4.423h-1.1v-4.1a9.983,9.983,0,0,0-.125-1.983,2.2,2.2,0,0,0-.735-1.285,2.232,2.232,0,0,0-1.424-.43,2.726,2.726,0,0,0-1.8.666,3.083,3.083,0,0,0-1.044,1.641,11.367,11.367,0,0,0-.157,2.339v3.152h-1.1v-8.592Z" transform="translate(-489.81 -453.626)" fill="#22274e"/>
          <path id="Path_5450" data-name="Path 5450" d="M558.448,462.907l.934.49a5.06,5.06,0,0,1-1.058,1.451,4.214,4.214,0,0,1-1.354.841,4.672,4.672,0,0,1-1.7.287,4.11,4.11,0,0,1-3.291-1.377,4.658,4.658,0,0,1-1.188-3.115,4.6,4.6,0,0,1,1-2.916,4.1,4.1,0,0,1,3.406-1.627,4.228,4.228,0,0,1,3.508,1.668,4.639,4.639,0,0,1,.947,2.939h-7.732a3.515,3.515,0,0,0,.957,2.454,3.049,3.049,0,0,0,2.288.957,3.64,3.64,0,0,0,1.276-.226,3.39,3.39,0,0,0,1.054-.606A4.989,4.989,0,0,0,558.448,462.907Zm0-2.316a3.653,3.653,0,0,0-.643-1.414,3.1,3.1,0,0,0-1.118-.855,3.407,3.407,0,0,0-1.465-.323,3.166,3.166,0,0,0-2.177.813,3.668,3.668,0,0,0-1,1.775h6.406Z" transform="translate(-502.325 -453.626)" fill="#22274e"/>
          <path id="Path_5451" data-name="Path 5451" d="M584.034,462.907l.934.49a4.973,4.973,0,0,1-1.058,1.451,4.244,4.244,0,0,1-1.35.841,4.672,4.672,0,0,1-1.7.287,4.11,4.11,0,0,1-3.291-1.377,4.658,4.658,0,0,1-1.188-3.115,4.6,4.6,0,0,1,1-2.916,4.1,4.1,0,0,1,3.406-1.627,4.228,4.228,0,0,1,3.508,1.668,4.639,4.639,0,0,1,.947,2.939h-7.732a3.494,3.494,0,0,0,.957,2.454,3.046,3.046,0,0,0,2.283.957,3.639,3.639,0,0,0,1.276-.226,3.388,3.388,0,0,0,1.054-.606A4.986,4.986,0,0,0,584.034,462.907Zm0-2.316a3.652,3.652,0,0,0-.642-1.414,3.1,3.1,0,0,0-1.119-.855,3.407,3.407,0,0,0-1.465-.323,3.166,3.166,0,0,0-2.177.813,3.668,3.668,0,0,0-1,1.775h6.406Z" transform="translate(-516.088 -453.626)" fill="#22274e"/>
          <path id="Path_5452" data-name="Path 5452" d="M601.96,457.167h1.128v1.257a3.971,3.971,0,0,1,1.068-1.109,2.1,2.1,0,0,1,1.169-.365,2.022,2.022,0,0,1,.98.291l-.578.934a1.491,1.491,0,0,0-.582-.148,1.609,1.609,0,0,0-1.068.453,2.89,2.89,0,0,0-.781,1.41,13.454,13.454,0,0,0-.2,2.972v2.907h-1.128v-8.6Z" transform="translate(-529.846 -453.632)" fill="#22274e"/>
          <path id="Path_5453" data-name="Path 5453" d="M616.006,449.77a.915.915,0,0,1,.915.915.856.856,0,0,1-.268.638.909.909,0,1,1-1.285-1.285A.856.856,0,0,1,616.006,449.77Zm-.55,3.536h1.1V461.9h-1.1Z" transform="translate(-536.912 -449.77)" fill="#22274e"/>
          <path id="Path_5454" data-name="Path 5454" d="M626.065,457.162h1.1V458.7a4.609,4.609,0,0,1,1.47-1.322,3.622,3.622,0,0,1,1.752-.439,3.037,3.037,0,0,1,1.71.49,2.915,2.915,0,0,1,1.1,1.317,7.009,7.009,0,0,1,.356,2.584v4.423h-1.1v-4.1a9.977,9.977,0,0,0-.125-1.983,2.18,2.18,0,0,0-.74-1.285,2.232,2.232,0,0,0-1.423-.43,2.726,2.726,0,0,0-1.8.666,3.083,3.083,0,0,0-1.045,1.641,11.37,11.37,0,0,0-.157,2.339v3.152h-1.1v-8.592Z" transform="translate(-542.807 -453.626)" fill="#22274e"/>
          <path id="Path_5455" data-name="Path 5455" d="M657.153,457.162h1.1v6.85a8.186,8.186,0,0,1-.314,2.648,3.455,3.455,0,0,1-1.507,1.826,4.969,4.969,0,0,1-2.584.638,5.918,5.918,0,0,1-1.987-.314,3.973,3.973,0,0,1-1.433-.841,4.963,4.963,0,0,1-1.017-1.539h1.2a3.165,3.165,0,0,0,1.266,1.262,4.082,4.082,0,0,0,1.923.411,3.951,3.951,0,0,0,1.909-.421,2.57,2.57,0,0,0,1.109-1.058,4.717,4.717,0,0,0,.333-2.057v-.444a4.178,4.178,0,0,1-1.525,1.211,4.54,4.54,0,0,1-4.141-.166,4.156,4.156,0,0,1-1.613-1.585,4.333,4.333,0,0,1-.568-2.186,4.42,4.42,0,0,1,2.232-3.855,4.352,4.352,0,0,1,2.209-.6,4.143,4.143,0,0,1,1.8.4,4.912,4.912,0,0,1,1.608,1.317v-1.493Zm-3.263.846a3.517,3.517,0,0,0-1.747.453,3.265,3.265,0,0,0-1.262,1.257,3.447,3.447,0,0,0-.458,1.733,3.121,3.121,0,0,0,.947,2.339,3.381,3.381,0,0,0,2.459.924,3.346,3.346,0,0,0,2.454-.915,3.232,3.232,0,0,0,.929-2.408,3.515,3.515,0,0,0-.425-1.733,3.151,3.151,0,0,0-1.206-1.206A3.414,3.414,0,0,0,653.89,458.008Z" transform="translate(-555.311 -453.626)" fill="#22274e"/>
        </g>
      </g>
      <g id="Group_10842" data-name="Group 10842" transform="translate(0 38.073)">
        <g id="Group_10841" data-name="Group 10841">
          <path id="Path_5456" data-name="Path 5456" d="M259.333,492.513l-15.821,15.821a7.451,7.451,0,0,0,5.163,1.5,8.113,8.113,0,0,0,5.033-2.561,9.294,9.294,0,0,0,2.815-6.674l6.1-2.2a13.845,13.845,0,0,1-.462,6.974,16.46,16.46,0,0,1-4.086,6.2,14.36,14.36,0,0,1-10.436,4.608,14.016,14.016,0,0,1-10.2-4.391,14.511,14.511,0,0,1-4.566-10.357,13.754,13.754,0,0,1,4.294-10.228,14.263,14.263,0,0,1,10.51-4.571q5.872.062,10.746,4.936Zm-8.8,1.045a6.992,6.992,0,0,0-4.594-.744,7.886,7.886,0,0,0-4.363,2.306,8.348,8.348,0,0,0-2.459,4.77,9.115,9.115,0,0,0,.735,4.349Z" transform="translate(-232.868 -486.628)" fill="#f07f1a"/>
        </g>
      </g>
      <path id="Path_5457" data-name="Path 5457" d="M312.056,411.6v6.406H304.8V404.325c.18-.019.342-.051.5-.051,12.132,0,24.26-.055,36.392.014,8.453.051,16.149,6.928,17.323,15.3a18.027,18.027,0,0,1-4.492,15.137,2.875,2.875,0,0,0-.213.259c-.028.042-.028.106.009-.055a47.11,47.11,0,0,1,5.237,3.966c5.6,5.579,7.413,12.313,4.982,19.837s-7.862,11.855-15.64,13.218a13.643,13.643,0,0,1-2.339.185q-10.482.021-20.965.009h-.573V445.117h7.168v19.666c.347.028.615.065.878.065,4.331,0,8.666.023,13,0a12,12,0,0,0,12.031-10.168c1.206-6.706-4.058-13.519-10.852-13.87-3.374-.176-17.854-.06-21.237-.079h-1v-7.284c1.659,0,14.365,0,15.978,0a10.933,10.933,0,0,0,.776-21.843c-2.7-.125-5.421-.042-8.13-.046q-10.524-.014-21.048-.009C312.449,411.549,312.31,411.577,312.056,411.6Z" transform="translate(-271.554 -404.252)" fill="#f07f1a"/>
      <path id="Path_5458" data-name="Path 5458" d="M333.872,505.678H326.68V466.66h7.192Z" transform="translate(-283.322 -437.816)" fill="#22274e"/>
      <path id="Path_5459" data-name="Path 5459" d="M312,492.76h-7.2V442.65H312Z" transform="translate(-271.554 -424.903)" fill="#22274e"/>
    </g>
  </g>
</svg>
